<svg xmlns="http://www.w3.org/2000/svg" width="25.89" height="28.711" viewBox="0 0 25.89 28.711">
  <g id="Group_1783" data-name="Group 1783" transform="translate(0)">
    <g id="Group_664" data-name="Group 664" transform="translate(0 0)">
      <path id="Path_6955" data-name="Path 6955" d="M2521.613,2715.781h-4.237a.709.709,0,0,1-.709-.709v-6.033a.709.709,0,0,1,1.417,0v5.325h3.529a.709.709,0,0,1,0,1.417Z" transform="translate(-2504.408 -2699.306)" fill="#fff"/>
      <path id="Line_30" data-name="Line 30" d="M-1.569,2.973a.709.709,0,0,1-.709-.709V-1.569a.709.709,0,0,1,.709-.709.709.709,0,0,1,.709.709V2.264A.709.709,0,0,1-1.569,2.973Z" transform="translate(14.514 2.303)" fill="#fff"/>
      <path id="Line_31" data-name="Line 31" d="M4.111-.891H-1.626a.734.734,0,0,1-.734-.734.734.734,0,0,1,.734-.734H4.111a.734.734,0,0,1,.734.734A.734.734,0,0,1,4.111-.891Z" transform="translate(11.702 2.36)" fill="#fff"/>
      <path id="Line_32" data-name="Line 32" d="M-1.569.328A.709.709,0,0,1-2.277-.38V-1.569a.709.709,0,0,1,.709-.709.709.709,0,0,1,.709.709V-.38A.709.709,0,0,1-1.569.328Z" transform="translate(14.514 7.394)" fill="#fff"/>
      <path id="Line_33" data-name="Line 33" d="M-1.569.328A.709.709,0,0,1-2.277-.38V-1.569a.709.709,0,0,1,.709-.709.709.709,0,0,1,.709.709V-.38A.709.709,0,0,1-1.569.328Z" transform="translate(14.514 26.073)" fill="#fff"/>
      <path id="Line_34" data-name="Line 34" d="M-.38-.86H-1.569a.709.709,0,0,1-.709-.709.709.709,0,0,1,.709-.709H-.38a.709.709,0,0,1,.709.709A.709.709,0,0,1-.38-.86Z" transform="translate(23.259 17.327)" fill="#fff"/>
      <path id="Line_35" data-name="Line 35" d="M-.38-.86H-1.569a.709.709,0,0,1-.709-.709.709.709,0,0,1,.709-.709H-.38a.709.709,0,0,1,.709.709A.709.709,0,0,1-.38-.86Z" transform="translate(4.581 17.327)" fill="#fff"/>
      <path id="Path_6956" data-name="Path 6956" d="M2479.911,2682.9a12.945,12.945,0,1,0,12.945,12.945A12.945,12.945,0,0,0,2479.911,2682.9Zm0,22.885a9.94,9.94,0,1,1,9.94-9.94A9.941,9.941,0,0,1,2479.911,2705.785Z" transform="translate(-2466.966 -2680.079)" fill="#fff"/>
    </g>
    <path id="Path_6957" data-name="Path 6957" d="M2477.2,2686.878l-.964-1.283a1.568,1.568,0,0,1,.311-2.2l2.247-1.688a1.568,1.568,0,0,1,2.2.311l.712.947" transform="translate(-2473.688 -2678.95)" fill="#fff"/>
  </g>
</svg>
