<svg id="Group_661" data-name="Group 661" xmlns="http://www.w3.org/2000/svg" width="26.642" height="28.661" viewBox="0 0 26.642 28.661">
  <g id="Group_660" data-name="Group 660" transform="translate(0 0)">
    <path id="Ellipse_108" data-name="Ellipse 108" d="M10.821-2.5A13.317,13.317,0,0,1,20.24,20.24,13.321,13.321,0,1,1,5.636-1.453,13.238,13.238,0,0,1,10.821-2.5Zm0,25.051A11.73,11.73,0,1,0-.909,10.821,11.744,11.744,0,0,0,10.821,22.551Z" transform="translate(2.5 4.519)" fill="#fff"/>
    <path id="Ellipse_109" data-name="Ellipse 109" d="M7.914-2.5A10.406,10.406,0,0,1,18.328,7.914,10.406,10.406,0,0,1,7.914,18.328,10.406,10.406,0,0,1-2.5,7.914,10.406,10.406,0,0,1,7.914-2.5Zm0,19.237A8.823,8.823,0,1,0-.909,7.914,8.833,8.833,0,0,0,7.914,16.737Z" transform="translate(5.407 7.426)" fill="#fff"/>
    <path id="Path_6949" data-name="Path 6949" d="M2386.542,2715.535h-4.1a.8.8,0,0,1-.8-.8V2708.9a.8.8,0,1,1,1.591,0v5.042h3.3a.8.8,0,1,1,0,1.591Z" transform="translate(-2369.101 -2699.4)" fill="#fff"/>
    <path id="Line_21" data-name="Line 21" d="M-1.7,1.11a.8.8,0,0,1-.8-.8V-1.7a.8.8,0,0,1,.8-.8.8.8,0,0,1,.8.8V.314A.8.8,0,0,1-1.7,1.11Z" transform="translate(15.026 2.5)" fill="#fff"/>
    <path id="Line_22" data-name="Line 22" d="M3.846-.909H-1.7a.8.8,0,0,1-.8-.8.8.8,0,0,1,.8-.8H3.846a.8.8,0,0,1,.8.8A.8.8,0,0,1,3.846-.909Z" transform="translate(12.25 2.5)" fill="#fff"/>
    <path id="Line_23" data-name="Line 23" d="M-1.7.241a.8.8,0,0,1-.8-.8V-1.7a.8.8,0,0,1,.8-.8.8.8,0,0,1,.8.8v1.15A.8.8,0,0,1-1.7.241Z" transform="translate(15.026 7.426)" fill="#fff"/>
    <path id="Line_24" data-name="Line 24" d="M-1.7.241a.8.8,0,0,1-.8-.8V-1.7a.8.8,0,0,1,.8-.8.8.8,0,0,1,.8.8v1.15A.8.8,0,0,1-1.7.241Z" transform="translate(15.026 25.499)" fill="#fff"/>
    <path id="Line_25" data-name="Line 25" d="M-.555-.909H-1.7a.8.8,0,0,1-.8-.8.8.8,0,0,1,.8-.8h1.15a.8.8,0,0,1,.8.8A.8.8,0,0,1-.555-.909Z" transform="translate(23.487 17.037)" fill="#fff"/>
    <path id="Line_26" data-name="Line 26" d="M-.555-.909H-1.7a.8.8,0,0,1-.8-.8.8.8,0,0,1,.8-.8h1.15a.8.8,0,0,1,.8.8A.8.8,0,0,1-.555-.909Z" transform="translate(5.414 17.037)" fill="#fff"/>
  </g>
  <path id="Path_6950" data-name="Path 6950" d="M2336.465,2685.791a.8.8,0,0,1-.637-.318l-.933-1.242a2.311,2.311,0,0,1,.459-3.238l2.173-1.634a2.312,2.312,0,0,1,3.238.459l.689.916a.8.8,0,1,1-1.271.956l-.689-.916a.722.722,0,0,0-1.011-.144l-2.174,1.634a.721.721,0,0,0-.143,1.01l.933,1.242a.8.8,0,0,1-.635,1.274Z" transform="translate(-2333.281 -2677.239)" fill="#fff"/>
</svg>
