<svg id="Group_1784" data-name="Group 1784" xmlns="http://www.w3.org/2000/svg" width="26.524" height="28.661" viewBox="0 0 26.524 28.661">
  <g id="Group_666" data-name="Group 666" transform="translate(0 0)">
    <path id="Path_6958" data-name="Path 6958" d="M2817.406,2686.417H2813.7v1.315a1.845,1.845,0,0,1-1.843,1.843h-12.446a1.846,1.846,0,0,1-1.844-1.843v-1.315h-3.7a1.491,1.491,0,0,0-1.491,1.491v23.542a1.491,1.491,0,0,0,1.491,1.491h23.542a1.491,1.491,0,0,0,1.491-1.491v-23.542A1.491,1.491,0,0,0,2817.406,2686.417Z" transform="translate(-2792.372 -2684.28)" fill="#fff"/>
    <rect id="Rectangle_41" data-name="Rectangle 41" width="15.029" height="4.744" rx="1.3" transform="translate(5.748)" fill="#fff"/>
  </g>
  <path id="Path_6959" data-name="Path 6959" d="M2813.933,2721.427a.793.793,0,0,1-.561-1.354l4.438-4.439a.793.793,0,0,1,1.121,0l3.525,3.525,4.489-4.489a.793.793,0,0,1,1.122,1.123l-5.049,5.049a.793.793,0,0,1-1.121,0l-3.526-3.525-3.877,3.877A.794.794,0,0,1,2813.933,2721.427Z" transform="translate(-2807.552 -2704.712)" fill="#380070"/>
  <path id="Path_6960" data-name="Path 6960" d="M2855.178,2717.617a.793.793,0,0,1-.793-.793v-2.33h-2.495a.793.793,0,0,1,0-1.586h3.288a.793.793,0,0,1,.793.793v3.124A.793.793,0,0,1,2855.178,2717.617Z" transform="translate(-2835.035 -2703.603)" fill="#380070"/>
  <path id="Line_36" data-name="Line 36" d="M12.194-.774H-1.567a.793.793,0,0,1-.793-.793.793.793,0,0,1,.793-.793H12.194a.793.793,0,0,1,.793.793A.793.793,0,0,1,12.194-.774Z" transform="translate(7.949 22.103)" fill="#380070"/>
  <path id="Line_37" data-name="Line 37" d="M10.55-.774H-1.567a.793.793,0,0,1-.793-.793.793.793,0,0,1,.793-.793H10.55a.793.793,0,0,1,.793.793A.793.793,0,0,1,10.55-.774Z" transform="translate(8.771 24.357)" fill="#380070"/>
  <path id="Line_38" data-name="Line 38" d="M9.094-.774H-1.567a.793.793,0,0,1-.793-.793.793.793,0,0,1,.793-.793H9.094a.793.793,0,0,1,.793.793A.793.793,0,0,1,9.094-.774Z" transform="translate(9.499 26.612)" fill="#380070"/>
</svg>
