<svg xmlns="http://www.w3.org/2000/svg" width="26.643" height="28.661" viewBox="0 0 26.643 28.661">
  <g id="Group_662" data-name="Group 662" transform="translate(0)">
    <path id="Path_6951" data-name="Path 6951" d="M2679.5,2710.56h-22.235a2.206,2.206,0,0,1-2.2-2.2v-22.235a2.206,2.206,0,0,1,2.2-2.2h4.02a.8.8,0,1,1,0,1.591h-4.02a.614.614,0,0,0-.613.613v22.235a.614.614,0,0,0,.613.613H2679.5a.614.614,0,0,0,.613-.613v-22.235a.614.614,0,0,0-.613-.613h-3.844a.8.8,0,1,1,0-1.591h3.844a2.206,2.206,0,0,1,2.2,2.2v22.235A2.206,2.206,0,0,1,2679.5,2710.56Z" transform="translate(-2655.064 -2681.899)" fill="#fff"/>
    <path id="Rectangle_40" data-name="Rectangle 40" d="M-.215-2.5H11A2.287,2.287,0,0,1,13.286-.215v1.5A2.287,2.287,0,0,1,11,3.571H-.215A2.287,2.287,0,0,1-2.5,1.286v-1.5A2.287,2.287,0,0,1-.215-2.5ZM11,1.98a.7.7,0,0,0,.694-.694v-1.5A.7.7,0,0,0,11-.909H-.215a.7.7,0,0,0-.694.694v1.5a.7.7,0,0,0,.694.694Z" transform="translate(7.929 2.5)" fill="#fff"/>
    <path id="Path_6952" data-name="Path 6952" d="M2678.987,2720.992a.8.8,0,0,1-.562-1.358l4.192-4.192a.8.8,0,0,1,1.125,0l3.3,3.3,4.206-4.206a.8.8,0,0,1,1.125,1.125l-4.769,4.769a.8.8,0,0,1-1.125,0l-3.3-3.3-3.63,3.629A.793.793,0,0,1,2678.987,2720.992Z" transform="translate(-2672.164 -2704.363)" fill="#fff"/>
    <path id="Path_6953" data-name="Path 6953" d="M2720.05,2717.309a.8.8,0,0,1-.8-.8v-2.154h-2.31a.8.8,0,1,1,0-1.591h3.1a.8.8,0,0,1,.8.8v2.95A.8.8,0,0,1,2720.05,2717.309Z" transform="translate(-2700.23 -2703.23)" fill="#fff"/>
    <path id="Line_27" data-name="Line 27" d="M11.293-.909h-13a.8.8,0,0,1-.8-.8.8.8,0,0,1,.8-.8h13a.8.8,0,0,1,.8.8A.8.8,0,0,1,11.293-.909Z" transform="translate(8.527 21.896)" fill="#fff"/>
    <path id="Line_28" data-name="Line 28" d="M9.74-.909H-1.7a.8.8,0,0,1-.8-.8.8.8,0,0,1,.8-.8H9.74a.8.8,0,0,1,.8.8A.8.8,0,0,1,9.74-.909Z" transform="translate(9.304 24.025)" fill="#fff"/>
    <path id="Line_29" data-name="Line 29" d="M8.365-.909H-1.7a.8.8,0,0,1-.8-.8.8.8,0,0,1,.8-.8H8.365a.8.8,0,0,1,.8.8A.8.8,0,0,1,8.365-.909Z" transform="translate(9.991 26.155)" fill="#fff"/>
  </g>
</svg>
