<svg xmlns="http://www.w3.org/2000/svg" width="26.809" height="28.661" viewBox="0 0 26.809 28.661">
  <g id="Group_1786" data-name="Group 1786" transform="translate(0)">
    <path id="Path_292" data-name="Path 292" d="M91.381,139.308a4.388,4.388,0,0,1,3.126,1.3l8.7,8.786a5.449,5.449,0,0,1,1.576,3.833v10.876a3.862,3.862,0,0,1-3.861,3.862H96.818a2.354,2.354,0,0,1-2.351-2.351v-5.86a.764.764,0,0,0-.764-.764H89.062a.764.764,0,0,0-.764.764v5.86a2.354,2.354,0,0,1-2.351,2.351H81.839a3.866,3.866,0,0,1-3.862-3.862V153.232a5.45,5.45,0,0,1,1.577-3.833l8.7-8.787a4.388,4.388,0,0,1,3.126-1.3Zm9.543,27.07a2.273,2.273,0,0,0,2.27-2.271V153.232a3.836,3.836,0,0,0-1.116-2.714l-8.7-8.786a2.809,2.809,0,0,0-3.991,0l-8.7,8.786a3.836,3.836,0,0,0-1.117,2.714v10.876a2.274,2.274,0,0,0,2.271,2.271h4.108a.761.761,0,0,0,.76-.76v-5.86a2.357,2.357,0,0,1,2.354-2.354H93.7a2.357,2.357,0,0,1,2.354,2.354v5.86a.761.761,0,0,0,.76.76Z" transform="translate(-77.977 -139.308)" fill="#fff"/>
  </g>
</svg>
