<svg xmlns="http://www.w3.org/2000/svg" width="26.7" height="28.661" viewBox="0 0 26.7 28.661">
  <g id="Group_659" data-name="Group 659" transform="translate(0)">
    <path id="Path_292" data-name="Path 292" d="M91.116,142.939l-9.213,9.3a4.928,4.928,0,0,0-1.426,3.466v11.515a3.248,3.248,0,0,0,3.247,3.247h4.35a1.647,1.647,0,0,0,1.647-1.647v-6.2a1.65,1.65,0,0,1,1.651-1.651h4.914a1.65,1.65,0,0,1,1.651,1.651v6.2a1.647,1.647,0,0,0,1.647,1.647h4.348a3.247,3.247,0,0,0,3.246-3.247V155.708a4.927,4.927,0,0,0-1.425-3.466l-9.214-9.3A3.816,3.816,0,0,0,91.116,142.939Z" transform="translate(-80.477 -141.809)" fill="#fff"/>
  </g>
</svg>
