<svg id="Group_1795" data-name="Group 1795" xmlns="http://www.w3.org/2000/svg" width="26.005" height="29.857" viewBox="0 0 26.005 29.857">
  <circle id="Ellipse_796" data-name="Ellipse 796" cx="7.417" cy="7.417" r="7.417" transform="translate(2.545)" fill="#fff"/>
  <path id="Path_13442" data-name="Path 13442" d="M1863.466,1405.128a9.962,9.962,0,0,0-9.961-9.962h0a9.962,9.962,0,0,0-9.961,9.962Z" transform="translate(-1843.543 -1376.731)" fill="#fff"/>
  <path id="Path_13443" data-name="Path 13443" d="M1904.369,1403.888l-4.073,4.073a1.844,1.844,0,0,1-2.608,0l-3.7-3.7-.376-.376a3.637,3.637,0,0,1-.075-5.074,3.535,3.535,0,0,1,5,0l.452.451.451-.451a3.536,3.536,0,0,1,5,0A3.635,3.635,0,0,1,1904.369,1403.888Z" transform="translate(-1879.433 -1378.644)" fill="#ff4343"/>
</svg>
