<svg xmlns="http://www.w3.org/2000/svg" width="26.005" height="29.857" viewBox="0 0 26.005 29.857">
  <g id="Group_1796" data-name="Group 1796" transform="translate(0)">
    <g id="Ellipse_797" data-name="Ellipse 797" transform="translate(2.545)" fill="none" stroke="#fff" stroke-linecap="round" stroke-linejoin="round" stroke-width="2">
      <circle cx="7.417" cy="7.417" r="7.417" stroke="none"/>
      <circle cx="7.417" cy="7.417" r="6.417" fill="none"/>
    </g>
    <g id="Path_13444" data-name="Path 13444" transform="translate(-1949.075 -1376.731)" fill="none" stroke-linecap="round" stroke-linejoin="round">
      <path d="M1969,1405.128a9.961,9.961,0,0,0-9.961-9.962h0a9.962,9.962,0,0,0-9.962,9.962Z" stroke="none"/>
      <path d="M 1966.743530273438 1403.127563476562 C 1965.854125976562 1399.702392578125 1962.735961914062 1397.166015625 1959.036499023438 1397.166015625 C 1955.337036132812 1397.166015625 1952.21875 1399.702392578125 1951.329345703125 1403.127563476562 L 1966.743530273438 1403.127563476562 M 1968.997924804688 1405.127563476562 L 1949.074951171875 1405.127563476562 C 1949.074951171875 1399.6259765625 1953.534790039062 1395.166015625 1959.036499023438 1395.166015625 C 1964.5380859375 1395.166015625 1968.997924804688 1399.6259765625 1968.997924804688 1405.127563476562 Z" stroke="none" fill="#fff"/>
    </g>
    <path id="Path_13445" data-name="Path 13445" d="M2009.9,1403.888l-4.073,4.073a1.844,1.844,0,0,1-2.608,0l-3.7-3.7-.376-.376a3.638,3.638,0,0,1-.075-5.074,3.536,3.536,0,0,1,5,0l.452.451.451-.451a3.535,3.535,0,0,1,5,0A3.636,3.636,0,0,1,2009.9,1403.888Z" transform="translate(-1984.965 -1378.644)" fill="#ff4343"/>
  </g>
</svg>
