<svg xmlns="http://www.w3.org/2000/svg" width="12.149" height="12.149" viewBox="0 0 12.149 12.149">
  <g id="surface1" transform="translate(0 0)">
    <path id="Path_2064" data-name="Path 2064" d="M11.793.877H10.234q.008-.259.009-.521A.356.356,0,0,0,9.887,0H2.262a.356.356,0,0,0-.356.356q0,.262.009.521H.356A.356.356,0,0,0,0,1.233,7.715,7.715,0,0,0,1.174,5.47,3.714,3.714,0,0,0,3.995,7.3a3.655,3.655,0,0,0,.771.647V9.531h-.6A1.311,1.311,0,0,0,2.859,10.84v.6H2.834a.356.356,0,1,0,0,.712H9.315a.356.356,0,1,0,0-.712H9.29v-.6A1.311,1.311,0,0,0,7.981,9.531h-.6V7.949A3.652,3.652,0,0,0,8.155,7.3,3.714,3.714,0,0,0,10.976,5.47a7.714,7.714,0,0,0,1.174-4.237A.356.356,0,0,0,11.793.877ZM1.766,5.075A6.86,6.86,0,0,1,.719,1.589H1.955A11.894,11.894,0,0,0,3.06,5.907q.142.285.3.538A3.433,3.433,0,0,1,1.766,5.075ZM8.578,10.84v.6H3.571v-.6a.6.6,0,0,1,.6-.6H7.981A.6.6,0,0,1,8.578,10.84ZM6.672,9.531H5.477V8.258a2.316,2.316,0,0,0,1.194,0Zm.22-2.119a.348.348,0,0,0-.046.023,1.662,1.662,0,0,1-1.543,0,.355.355,0,0,0-.047-.024,2.865,2.865,0,0,1-.8-.663A.359.359,0,0,0,4.407,6.7,5.612,5.612,0,0,1,3.7,5.588,11.75,11.75,0,0,1,2.622.712h6.9A11.753,11.753,0,0,1,8.452,5.588,5.616,5.616,0,0,1,7.742,6.7a.35.35,0,0,0-.046.053A2.866,2.866,0,0,1,6.892,7.412Zm3.491-2.336A3.433,3.433,0,0,1,8.792,6.445q.154-.253.3-.538a11.9,11.9,0,0,0,1.106-4.318H11.43A6.86,6.86,0,0,1,10.383,5.075Zm0,0" transform="translate(0 0)" fill="#fff"/>
  </g>
</svg>
