<svg xmlns="http://www.w3.org/2000/svg" width="16.495" height="18.726" viewBox="0 0 16.495 18.726">
  <g id="filter" transform="translate(-30.5)">
    <path id="Path_2370" data-name="Path 2370" d="M32.694,0H31.6V13.24H30.5v3.292h1.1v2.194h1.1V16.532h1.1V13.24h-1.1Zm0,15.434H31.6v-1.1h1.1Z" transform="translate(0)" fill="#7478fb"/>
    <path id="Path_2371" data-name="Path 2371" d="M394.792,13.24h-1.1V0h-1.1V13.24h-1.1v3.292h1.1v2.194h1.1V16.532h1.1Zm-1.1,2.194h-1.1v-1.1h1.1Z" transform="translate(-347.797)" fill="#7478fb"/>
    <path id="Path_2372" data-name="Path 2372" d="M273.694,0h-1.1V8.12h-1.1v3.292h1.1v7.315h1.1V11.411h1.1V8.12h-1.1Zm0,10.314h-1.1v-1.1h1.1Z" transform="translate(-232.186)" fill="#7478fb"/>
    <path id="Path_2373" data-name="Path 2373" d="M152.694,0h-1.1V1.962h-1.1V5.254h1.1V18.726h1.1V5.254h1.1V1.962h-1.1Zm0,4.157h-1.1V3.06h1.1Z" transform="translate(-115.611)" fill="#7478fb"/>
  </g>
</svg>
