<svg xmlns="http://www.w3.org/2000/svg" width="16.856" height="21.084" viewBox="0 0 16.856 21.084">
  <g id="Group_1676" data-name="Group 1676" transform="translate(-314.011 -44)">
    <g id="Icon_ionic-ios-notifications-outline" data-name="Icon ionic-ios-notifications-outline" transform="translate(314.011 44)">
      <path id="Path_2265" data-name="Path 2265" d="M18.949,28.336a.682.682,0,0,0-.669.538,1.321,1.321,0,0,1-.263.574,1,1,0,0,1-.848.311,1.013,1.013,0,0,1-.848-.311,1.321,1.321,0,0,1-.263-.574.682.682,0,0,0-.669-.538h0a.687.687,0,0,0-.669.838,2.355,2.355,0,0,0,2.45,1.955,2.35,2.35,0,0,0,2.45-1.955.69.69,0,0,0-.669-.838Z" transform="translate(-8.761 -10.045)" fill="#262626"/>
      <path id="Path_2266" data-name="Path 2266" d="M23.408,19.544C22.6,18.475,21,17.848,21,13.057c0-4.917-2.171-6.893-4.195-7.367-.19-.047-.327-.111-.327-.311V5.227a1.292,1.292,0,0,0-1.265-1.3h-.032a1.292,1.292,0,0,0-1.265,1.3V5.38c0,.195-.137.263-.327.311C11.562,6.17,9.4,8.141,9.4,13.057c0,4.79-1.6,5.412-2.408,6.487a1.046,1.046,0,0,0,.838,1.676h14.76A1.047,1.047,0,0,0,23.408,19.544Zm-2.055.306H9.064a.231.231,0,0,1-.174-.385A6.384,6.384,0,0,0,10,17.705a11.942,11.942,0,0,0,.754-4.648,8.081,8.081,0,0,1,1.1-4.574,3.381,3.381,0,0,1,2.039-1.454,1.847,1.847,0,0,0,.98-.553.417.417,0,0,1,.627-.011,1.909,1.909,0,0,0,.991.564,3.381,3.381,0,0,1,2.039,1.454,8.081,8.081,0,0,1,1.1,4.574,11.942,11.942,0,0,0,.754,4.648,6.457,6.457,0,0,0,1.133,1.786A.218.218,0,0,1,21.353,19.85Z" transform="translate(-6.775 -3.93)" fill="#262626"/>
    </g>
    <g id="Ellipse_13" data-name="Ellipse 13" transform="translate(321.379 44)" fill="#fd6565" stroke="#fff" stroke-width="1">
      <circle cx="4.744" cy="4.744" r="4.744" stroke="none"/>
      <circle cx="4.744" cy="4.744" r="4.244" fill="none"/>
    </g>
  </g>
</svg>
