<svg xmlns="http://www.w3.org/2000/svg" width="13.558" height="10.804" viewBox="0 0 13.558 10.804">
  <path id="Icon_metro-tags" data-name="Icon metro-tags" d="M16.095,7.716H11.963a1.437,1.437,0,0,0-.882.365L5.958,13.2a.518.518,0,0,0,0,.73l4.434,4.434a.518.518,0,0,0,.73,0l5.123-5.123a1.437,1.437,0,0,0,.365-.882V8.232A.518.518,0,0,0,16.095,7.716Zm-2.582,4.132a1.033,1.033,0,1,1,1.033-1.033A1.033,1.033,0,0,1,13.512,11.848Zm-9.3,1.722,5.853-5.853H9.208a1.437,1.437,0,0,0-.882.365L3.2,13.2a.518.518,0,0,0,0,.73l4.434,4.434a.518.518,0,0,0,.73,0l.323-.323L4.216,13.569Z" transform="translate(-3.053 -7.716)" fill="#fff"/>
</svg>
